# xmcd
#
# Track frame offsets: 
#        150
#        17284
#        30022
#        46480
#        58765
#        71545
#        87717
#        103506
#        116209
#        133287
#        150330
#        161382
#
# Disc length: 2297 seconds
#
# Revision: 0
# Processed by: cddbd v1.5.2PL0 Copyright (c) Steve Scherf et al.
# Submitted via: ExactAudioCopy v1.3
#
DISCID=9308f70c
DTITLE=The Flaming Mudcats - Cut Loose
DYEAR=2018
DGENRE=Blues, Swing
TTITLE0=Moving To The Country
TTITLE1=Rooster Blues
TTITLE2=Why Why
TTITLE3=Cut Me Loose
TTITLE4=Missed My Chance
TTITLE5=Trying To Get Ahead
TTITLE6=Getaway
TTITLE7=Hey Margarita
TTITLE8=Show Me Some Love
TTITLE9=Sneakin Around
TTITLE10=Welcome To My Blues
TTITLE11=Cry No More
EXTD=
EXTT0=
EXTT1=
EXTT2=
EXTT3=
EXTT4=
EXTT5=
EXTT6=
EXTT7=
EXTT8=
EXTT9=
EXTT10=
EXTT11=
PLAYORDER=
